PathFileType	4	(X/Y/Z)	C:/Users/opensim2020/Desktop/walking_exp_matlab/subject03_walking10_straight_03.trc	
DataRate	CameraRate	NumFrames	NumMarkers	Units	OrigDataRate	OrigDataStartFrame	OrigNumFrames	
100.00	100.00	4	45	mm	100.00	2894	417	
Frame#	Time	LFHD			RFHD			LBHD			RBHD			C7			T10			CLAV			STRN			RBAK			LSHO			LUPA			LELB			LFRM			LWRA			LWRB			LFIN			RSHO			RUPA			RELB			RFRM			RWRA			RWRB			RFIN			LASI			RASI			LPSI			RPSI			LTHI			LKNE			LTIB			LANK			LHEE			LTOE			RTHI			RKNE			RTIB			RANK			RHEE			RTOE			*39			*40			*41			*42			*43			*44			
		X1	Y1	Z1	X2	Y2	Z2	X3	Y3	Z3	X4	Y4	Z4	X5	Y5	Z5	X6	Y6	Z6	X7	Y7	Z7	X8	Y8	Z8	X9	Y9	Z9	X10	Y10	Z10	X11	Y11	Z11	X12	Y12	Z12	X13	Y13	Z13	X14	Y14	Z14	X15	Y15	Z15	X16	Y16	Z16	X17	Y17	Z17	X18	Y18	Z18	X19	Y19	Z19	X20	Y20	Z20	X21	Y21	Z21	X22	Y22	Z22	X23	Y23	Z23	X24	Y24	Z24	X25	Y25	Z25	X26	Y26	Z26	X27	Y27	Z27	X28	Y28	Z28	X29	Y29	Z29	X30	Y30	Z30	X31	Y31	Z31	X32	Y32	Z32	X33	Y33	Z33	X34	Y34	Z34	X35	Y35	Z35	X36	Y36	Z36	X37	Y37	Z37	X38	Y38	Z38	X39	Y39	Z39	X40	Y40	Z40	X41	Y41	Z41	X42	Y42	Z42	X43	Y43	Z43	X44	Y44	Z44	X45	Y45	Z45	

157	1.560	1345.09705	-166.00949	1631.66333	1478.97681	-169.23553	1640.15088	1351.11218	-288.06650	1573.02576	1481.92200	-286.34326	1582.02014	1406.96985	-305.81195	1422.58948	1405.71167	-336.77896	1110.56396	1414.99182	-183.46150	1347.40417	1409.86011	-139.02643	1182.49707	1500.06274	-361.88953	1247.20313	1258.12329	-216.11031	1384.87256	1178.87158	-196.93500	1193.98206	1162.46729	-168.12502	1075.05066	1163.99768	-116.12535	955.65295	1194.52502	-77.55362	843.17902	1140.84314	-92.34664	846.28680	1150.15979	-58.19487	769.70398	1572.17407	-237.01953	1370.33020	1643.80640	-235.32028	1147.52063	1657.36401	-217.01161	1036.36609	1659.47717	-193.55392	901.15979	1625.33032	-156.58537	807.82745	1667.49023	-190.30688	801.19489	1659.48206	-163.29039	731.42804	1289.58301	-170.81238	945.15631	1528.04016	-174.12006	946.73669	1340.03357	-334.23526	972.90179	1488.57520	-334.03235	976.17426	1260.47754	-237.08765	642.49530	1304.24500	-238.50235	465.56198	1306.89307	-298.71686	278.95432	1353.20325	-333.66614	73.17772	1389.09790	-375.05533	40.96008	1367.11938	-182.46025	35.16181	1581.73083	-165.92953	657.59442	1555.95276	-101.61046	488.82980	1564.35510	-188.77063	317.83414	1527.29822	-279.40451	120.33302	1475.24890	-331.34256	98.57839	1514.96094	-160.67120	47.27255	1394.69666	-255.26361	1686.08740															 
158	1.570	1346.17236	-158.71292	1631.05652	1479.27429	-162.04213	1639.63611	1351.30530	-281.03537	1572.87756	1482.13501	-279.37415	1581.87122	1407.06018	-299.04605	1422.36353	1405.44629	-330.49789	1110.29871	1415.28748	-176.71967	1347.01245	1409.71692	-132.57356	1182.08130	1499.59070	-355.53995	1246.75586	1258.44946	-208.90074	1384.89648	1178.44409	-188.48735	1194.67688	1161.63586	-158.07568	1076.11023	1163.49597	-104.23142	957.71979	1194.27734	-64.11008	845.81757	1140.53772	-78.72775	848.52240	1150.28027	-43.48190	772.43414	1572.31738	-230.85112	1369.74976	1643.87695	-229.73653	1146.92590	1657.55383	-211.25117	1035.79675	1659.55322	-187.87796	900.60675	1625.27063	-150.89279	807.32111	1667.43811	-184.55937	800.64465	1659.43530	-157.29643	730.90637	1289.03772	-164.51323	944.83185	1527.30457	-167.33788	946.59991	1339.80676	-327.73734	972.27155	1488.36731	-327.48206	976.01215	1260.34033	-233.00906	642.04773	1304.34619	-235.85588	465.20544	1307.15210	-297.27689	278.99588	1353.39343	-333.52737	73.54556	1389.34302	-375.06369	41.27627	1367.24475	-182.32849	35.12198	1581.70105	-157.54120	658.01373	1555.17529	-92.06786	489.76108	1563.61768	-172.77800	315.61282	1526.45581	-254.64438	114.30897	1474.21838	-305.87924	90.31256	1514.35974	-132.92171	46.70852	1394.94702	-247.95876	1685.87390															 
159	1.580	1345.88110	-151.58951	1630.54675	1479.67688	-154.87070	1639.10168	1351.54150	-273.90036	1572.63342	1482.38672	-272.37607	1581.63281	1407.14111	-292.20007	1422.08032	1405.35022	-323.88333	1110.07825	1415.54419	-170.04256	1346.60352	1409.61792	-126.13087	1181.56921	1499.24658	-349.13162	1246.30896	1258.82629	-201.68716	1384.80615	1178.03821	-179.97400	1195.35803	1160.86047	-148.22935	1077.12537	1163.00195	-92.68053	959.43610	1194.20007	-50.80085	848.41498	1140.36670	-65.24106	850.74408	1150.61523	-28.87670	775.19342	1572.50793	-224.63997	1369.10132	1644.01599	-224.08539	1146.28076	1657.63855	-205.58250	1035.16748	1659.61499	-182.12901	899.95319	1625.33533	-144.97685	806.81134	1667.50183	-178.66901	800.05402	1659.47729	-151.30573	730.40594	1288.46143	-159.81010	943.98254	1526.65027	-160.55383	946.36188	1339.76697	-321.72617	971.84473	1488.23755	-320.86130	975.64941	1260.21643	-228.94366	641.69543	1304.37744	-233.39287	464.78668	1307.32263	-295.96991	279.04980	1353.77551	-333.42065	73.79660	1389.72571	-375.04504	41.70401	1367.31030	-182.30795	35.09781	1581.71362	-149.67072	658.24133	1554.43127	-82.89231	490.56885	1562.97461	-156.93181	313.47479	1525.54810	-229.75629	108.54483	1473.17493	-279.92374	82.46546	1513.88928	-105.47726	46.40084	1395.19250	-240.57025	1685.45459															 
160	1.590	1346.88000	-144.34474	1629.89343	1480.07507	-147.75056	1638.53857	1351.83289	-266.87625	1572.28857	1482.69360	-265.42676	1581.33435	1407.28125	-285.38062	1421.83179	1405.24365	-317.43613	1109.68054	1415.89551	-163.36215	1346.10962	1409.52075	-119.73383	1181.00537	1498.93616	-342.72900	1245.85486	1259.21875	-194.48607	1384.72961	1177.72961	-171.60796	1195.88940	1160.25952	-138.38936	1078.11792	1162.71985	-81.17995	961.30658	1194.16846	-37.81240	850.89392	1140.38342	-51.93808	852.96460	1151.03625	-14.54147	777.92120	1572.74500	-218.45813	1368.41675	1644.13757	-218.54735	1145.58313	1657.77405	-199.95850	1034.44434	1659.65515	-176.36639	899.27502	1625.36938	-139.12347	806.16235	1667.38989	-172.82903	799.35236	1659.47815	-145.30402	729.71820	1287.90088	-154.00388	943.48596	1526.02100	-153.74083	945.99176	1339.71362	-315.75021	971.47009	1488.15161	-314.28052	975.25836	1260.31335	-224.96059	641.31207	1304.43604	-231.02438	464.50952	1307.54480	-294.80777	279.17856	1354.02722	-333.32098	74.17309	1390.03638	-374.95175	42.23083	1367.31702	-182.28166	35.06513	1581.59351	-142.33553	658.19592	1553.58374	-74.16380	491.04547	1562.30994	-141.13789	311.28424	1524.68079	-204.84566	103.44888	1472.19531	-254.00256	75.33949	1513.24341	-78.27746	46.32092	1395.53796	-233.29201	1685.12024															 
